<svg width="21" height="20" viewBox="0 0 21 20" fill="none" xmlns="http://www.w3.org/2000/svg">
<path d="M14.55 11C14.9073 11.0011 15.2583 10.9061 15.5662 10.7249C15.8741 10.5436 16.1276 10.2829 16.3 9.97L19.88 3.48C19.963 3.32825 20.0053 3.15756 20.0026 2.9846C20 2.81164 19.9525 2.64233 19.8648 2.49321C19.7772 2.34408 19.6523 2.22025 19.5025 2.1338C19.3527 2.04736 19.183 2.00125 19.01 2H4.21L3.27 0H0V2H2L5.6 9.59L4.25 12.03C4.08111 12.3345 3.99465 12.6779 3.9992 13.0261C4.00374 13.3743 4.09912 13.7153 4.27591 14.0153C4.45269 14.3153 4.70474 14.564 5.00713 14.7367C5.30952 14.9094 5.65177 15.0002 6 15H18V13H6L7.1 11H14.55ZM5.16 4H17.31L14.55 9H7.53L5.16 4ZM6 16C5.60444 16 5.21776 16.1173 4.88886 16.3371C4.55996 16.5568 4.30362 16.8692 4.15224 17.2346C4.00087 17.6001 3.96126 18.0022 4.03843 18.3902C4.1156 18.7781 4.30608 19.1345 4.58579 19.4142C4.86549 19.6939 5.22186 19.8844 5.60982 19.9616C5.99778 20.0387 6.39991 19.9991 6.76537 19.8478C7.13082 19.6964 7.44318 19.44 7.66294 19.1111C7.8827 18.7822 8 18.3956 8 18C8 17.4696 7.78929 16.9609 7.41421 16.5858C7.03914 16.2107 6.53043 16 6 16ZM16 16C15.6044 16 15.2178 16.1173 14.8889 16.3371C14.56 16.5568 14.3036 16.8692 14.1522 17.2346C14.0009 17.6001 13.9613 18.0022 14.0384 18.3902C14.1156 18.7781 14.3061 19.1345 14.5858 19.4142C14.8655 19.6939 15.2219 19.8844 15.6098 19.9616C15.9978 20.0387 16.3999 19.9991 16.7654 19.8478C17.1308 19.6964 17.4432 19.44 17.6629 19.1111C17.8827 18.7822 18 18.3956 18 18C18 17.4696 17.7893 16.9609 17.4142 16.5858C17.0391 16.2107 16.5304 16 16 16Z" fill="#444444"/>
</svg>
