<svg width="20" height="19" viewBox="0 0 20 19" fill="none" xmlns="http://www.w3.org/2000/svg">
<path d="M14.5003 1.62757e-05C13.6444 0.00654384 12.7999 0.196473 12.0236 0.557002C11.2473 0.91753 10.5574 1.44028 10.0003 2.09002C9.44312 1.44028 8.75317 0.91753 7.97692 0.557002C7.20066 0.196473 6.35613 0.00654384 5.50026 1.62757e-05C4.77602 -0.00706563 4.05764 0.13036 3.38715 0.404253C2.71666 0.678146 2.10753 1.08301 1.59539 1.59515C1.08325 2.10728 0.67839 2.71642 0.404497 3.38691C0.130604 4.0574 -0.00682149 4.77578 0.000260416 5.50002C0.000260416 9.28002 3.40026 12.36 8.55026 17.04L10.0003 18.35L11.4503 17.03C16.6003 12.36 20.0003 9.28002 20.0003 5.50002C20.0073 4.77578 19.8699 4.0574 19.596 3.38691C19.3221 2.71642 18.9173 2.10728 18.4051 1.59515C17.893 1.08301 17.2839 0.678146 16.6134 0.404253C15.9429 0.13036 15.2245 -0.00706563 14.5003 1.62757e-05ZM10.1003 15.55L10.0003 15.65L9.90026 15.55C5.14026 11.24 2.00026 8.39002 2.00026 5.50002C1.98902 5.03732 2.07187 4.57716 2.24378 4.14744C2.41569 3.71772 2.67309 3.32739 3.00036 3.00012C3.32763 2.67285 3.71796 2.41545 4.14768 2.24354C4.5774 2.07162 5.03756 1.98878 5.50026 2.00002C6.26033 2.00371 7.00284 2.22892 7.63691 2.64808C8.27097 3.06723 8.76907 3.66215 9.07026 4.36002H10.9403C11.2382 3.66187 11.7342 3.06631 12.3668 2.64689C12.9995 2.22748 13.7412 2.00259 14.5003 2.00002C14.963 1.98878 15.4231 2.07162 15.8528 2.24354C16.2826 2.41545 16.6729 2.67285 17.0002 3.00012C17.3274 3.32739 17.5848 3.71772 17.7567 4.14744C17.9287 4.57716 18.0115 5.03732 18.0003 5.50002C18.0003 8.39002 14.8603 11.24 10.1003 15.55Z" fill="#444444"/>
</svg>
