<svg width="16" height="16" viewBox="0 0 16 16" fill="none" xmlns="http://www.w3.org/2000/svg">
<path d="M8 1.9C8.41534 1.9 8.82135 2.02316 9.1667 2.25391C9.51204 2.48466 9.7812 2.81264 9.94015 3.19636C10.0991 3.58009 10.1407 4.00233 10.0596 4.40969C9.97862 4.81705 9.77861 5.19123 9.48492 5.48492C9.19123 5.77861 8.81705 5.97862 8.40969 6.05965C8.00233 6.14068 7.58009 6.09909 7.19636 5.94015C6.81264 5.7812 6.48466 5.51204 6.25391 5.1667C6.02316 4.82135 5.9 4.41534 5.9 4C5.9 3.44305 6.12125 2.9089 6.51508 2.51508C6.9089 2.12125 7.44305 1.9 8 1.9ZM8 10.9C10.97 10.9 14.1 12.36 14.1 13V14.1H1.9V13C1.9 12.36 5.03 10.9 8 10.9ZM8 0C7.20887 0 6.43552 0.234596 5.77772 0.674121C5.11992 1.11365 4.60723 1.73836 4.30448 2.46927C4.00173 3.20017 3.92252 4.00444 4.07686 4.78036C4.2312 5.55629 4.61216 6.26902 5.17157 6.82843C5.73098 7.38784 6.44371 7.7688 7.21964 7.92314C7.99556 8.07748 8.79983 7.99827 9.53073 7.69552C10.2616 7.39277 10.8864 6.88008 11.3259 6.22228C11.7654 5.56448 12 4.79113 12 4C12 2.93913 11.5786 1.92172 10.8284 1.17157C10.0783 0.421427 9.06087 0 8 0ZM8 9C5.33 9 0 10.34 0 13V16H16V13C16 10.34 10.67 9 8 9Z" fill="#444444"/>
</svg>
